<?xml version="1.0" encoding="UTF-8" standalone="no"?>
<svg width="26px" height="23px" viewBox="0 0 26 23" version="1.1" xmlns="http://www.w3.org/2000/svg" xmlns:xlink="http://www.w3.org/1999/xlink">
    <!-- Generator: Sketch 46.2 (44496) - http://www.bohemiancoding.com/sketch -->
    <title>Page 1</title>
    <desc>Created with Sketch.</desc>
    <defs></defs>
    <g id="Page-1" stroke="none" stroke-width="1" fill="none" fill-rule="evenodd">
        <g id="Desktop-Events" transform="translate(-1142.000000, -465.000000)" fill="#41B6E6">
            <g id="Page-1" transform="translate(1142.000000, 465.000000)">
                <path d="M16,16 L20,16 L20,12 L16,12 L16,16 Z M14,18 L22,18 L22,10 L14,10 L14,18 Z" id="Fill-1"></path>
                <path d="M0,23 L26,23 L26,5 L0,5 L0,23 Z M2,21 L24.001,21 L24.001,7 L2,7 L2,21 Z" id="Fill-2"></path>
                <path d="M0,6.999 L26,6.999 L26,1 L0,1 L0,6.999 Z M2,4.999 L24.001,4.999 L24.001,2.999 L2,2.999 L2,4.999 Z" id="Fill-3"></path>
                <polygon id="Fill-4" points="19 4.001 21 4.001 21 0 19 0"></polygon>
                <polygon id="Fill-5" points="5 4.001 7 4.001 7 0 5 0"></polygon>
                <polygon id="Fill-6" points="9 17 11 17 11 15 9 15"></polygon>
                <polygon id="Fill-7" points="5 17 7 17 7 15 5 15"></polygon>
                <polygon id="Fill-8" points="5 13 7 13 7 11 5 11"></polygon>
                <polygon id="Fill-9" points="9 13 11 13 11 11 9 11"></polygon>
            </g>
        </g>
    </g>
</svg>