<?xml version="1.0" encoding="UTF-8" standalone="no"?>
<svg width="26px" height="26px" viewBox="0 0 26 26" version="1.1" xmlns="http://www.w3.org/2000/svg" xmlns:xlink="http://www.w3.org/1999/xlink">
    <!-- Generator: Sketch 46.2 (44496) - http://www.bohemiancoding.com/sketch -->
    <title>Page 1</title>
    <desc>Created with Sketch.</desc>
    <defs></defs>
    <g id="Page-1" stroke="none" stroke-width="1" fill="none" fill-rule="evenodd">
        <g id="Desktop-Events" transform="translate(-1142.000000, -510.000000)" fill="#41B6E6">
            <g id="Page-1" transform="translate(1142.000000, 510.000000)">
                <polygon id="Fill-1" points="17.9502 19.3643 12.0002 13.4143 12.0002 4.9173 14.0002 4.9173 14.0002 12.5863 19.3642 17.9503"></polygon>
                <path d="M13,2 C6.935,2 2,6.935 2,13 C2,19.065 6.935,24 13,24 C19.065,24 24,19.065 24,13 C24,6.935 19.065,2 13,2 M13,26 C5.832,26 0,20.168 0,13 C0,5.832 5.832,0 13,0 C20.168,0 26,5.832 26,13 C26,20.168 20.168,26 13,26" id="Fill-2"></path>
            </g>
        </g>
    </g>
</svg>