<?xml version="1.0" encoding="UTF-8" standalone="no"?>
<svg width="134px" height="25px" viewBox="0 0 134 25" version="1.1" xmlns="http://www.w3.org/2000/svg" xmlns:xlink="http://www.w3.org/1999/xlink">
    <!-- Generator: Sketch 46.2 (44496) - http://www.bohemiancoding.com/sketch -->
    <title>Page 1</title>
    <desc>Created with Sketch.</desc>
    <defs>
        <polygon id="path-1" points="0 25 133.86541 25 133.86541 0.0680232558 0 0.0680232558"></polygon>
    </defs>
    <g id="Page-1" stroke="none" stroke-width="1" fill="none" fill-rule="evenodd">
        <g id="Desktop-Events-Home" transform="translate(-80.000000, -28.000000)">
            <g id="Page-1" transform="translate(80.000000, 28.000000)">
                <polygon id="Fill-1" fill="#FFFFFF" points="130.619683 6 130.619683 15.6796443 123.242418 6 121 6 121 20 123.380889 20 123.380889 10.0399717 130.973298 20 133 20 133 6"></polygon>
                <g id="Group-13">
                    <path d="M111.354,6.22976744 C115.716969,6.22976744 118.761189,9.48848837 118.761189,13.4256977 L118.761189,13.465814 C118.761189,17.4030233 115.676828,20.7012791 111.313269,20.7012791 C106.9503,20.7012791 103.905489,17.4437209 103.905489,13.5059302 L103.905489,13.465814 C103.905489,9.52802326 106.990441,6.22976744 111.354,6.22976744 Z M116.143172,13.5059302 L116.143172,13.465814 C116.143172,10.7472093 114.134352,8.48848837 111.313269,8.48848837 C108.492185,8.48848837 106.523507,10.7076744 106.523507,13.4256977 L106.523507,13.465814 C106.523507,16.1838372 108.532326,18.4431395 111.354,18.4431395 C114.174493,18.4431395 116.143172,16.2245349 116.143172,13.5059302 Z" id="Fill-2" fill="#FFFFFF"></path>
                    <mask id="mask-2" fill="white">
                        <use xlink:href="#path-1"></use>
                    </mask>
                    <g id="Clip-5"></g>
                    <polygon id="Fill-4" fill="#FFFFFF" mask="url(#mask-2)" points="98.6186872 20.4616279 101.115101 20.4616279 101.115101 6.46976744 98.6186872 6.46976744"></polygon>
                    <path d="M90.7131004,20.6617442 C93.6965189,20.6617442 95.7868009,19.1018605 95.7868009,16.4838372 L95.7868009,16.4443023 C95.7868009,14.1251163 94.2242546,13.0663953 91.2201753,12.3466279 C88.5006247,11.707093 87.8512855,11.2274419 87.8512855,10.1472093 L87.8512855,10.1076744 C87.8512855,9.18848837 88.7036907,8.44837209 90.1652943,8.44837209 C91.4633824,8.44837209 92.7425806,8.94837209 94.0205982,9.88790698 L95.3605982,8.02918605 C93.9196555,6.88965116 92.2756467,6.27046512 90.2054352,6.27046512 C87.3849419,6.27046512 85.3554617,7.92860465 85.3554617,10.3274419 L85.3554617,10.3681395 C85.3554617,12.9466279 87.0596819,13.8256977 90.0832414,14.5448837 C92.7225101,15.1448837 93.2909771,15.6844186 93.2909771,16.6844186 L93.2909771,16.7239535 C93.2909771,17.7832558 92.316378,18.4826744 90.7739022,18.4826744 C89.0088802,18.4826744 87.6482194,17.8233721 86.2887392,16.6634884 L84.7869947,18.4227907 C86.4918053,19.9227907 88.5413559,20.6617442 90.7131004,20.6617442" id="Fill-6" fill="#FFFFFF" mask="url(#mask-2)"></path>
                    <polygon id="Fill-7" fill="#FFFFFF" mask="url(#mask-2)" points="81.1207075 0.0677325581 61.3512802 19.4938953 61.3512802 0.0677325581 -5.9030837e-05 0.0677325581 -5.9030837e-05 2.35203488 59.0313683 2.35203488 59.0313683 24.9997093 82.0799586 2.35203488 133.865351 2.35203488 133.865351 0.0677325581"></polygon>
                    <polygon id="Fill-8" fill="#FFFFFF" mask="url(#mask-2)" points="79.5471225 9.03052326 79.5471225 20.4613372 82.0435366 20.4613372 82.0435366 6.57761628"></polygon>
                    <path d="M47.6880026,18.4426163 C44.8675093,18.4426163 42.8575093,16.1844767 42.8575093,13.4652907 L42.8575093,13.4257558 C42.8575093,10.7071512 44.8261877,8.48854651 47.6472714,8.48854651 C50.4683551,8.48854651 52.4777648,10.7472674 52.4777648,13.4652907 L52.4777648,13.5059884 C52.4777648,16.2240116 50.5096767,18.4426163 47.6880026,18.4426163 M47.6472714,20.7013372 C52.0114211,20.7013372 55.0957824,17.4036628 55.0957824,13.4652907 L55.0957824,13.4257558 C55.0957824,9.48796512 52.0515621,6.22982558 47.6880026,6.22982558 C43.3250335,6.22982558 40.2394916,9.5280814 40.2394916,13.4652907 L40.2394916,13.5059884 C40.2394916,17.4437791 43.2843022,20.7013372 47.6472714,20.7013372" id="Fill-9" fill="#FFFFFF" mask="url(#mask-2)"></path>
                    <path d="M33.3533674,20.701686 C36.2954643,20.701686 38.3255348,18.8621512 38.3255348,16.2842442 L38.3255348,16.2441279 C38.3255348,13.6452907 36.2954643,12.5859884 34.1443806,12.3063372 L38.1023982,8.30866279 L38.1023982,6.4697093 L28.704689,6.4697093 L28.7058696,8.6080814 L34.8551119,8.6080814 L31.0192881,12.626686 L31.4254203,14.1650581 L32.5812441,14.1650581 C34.5705833,14.1650581 35.8497815,14.9447093 35.8497815,16.3243605 L35.8497815,16.3644767 C35.8497815,17.6429651 34.7937198,18.4830814 33.3940987,18.4830814 C31.8103013,18.4830814 30.674548,17.8231977 29.6592176,16.6441279 L27.9142661,18.2429651 C29.1114115,19.6819186 30.8770238,20.701686 33.3533674,20.701686" id="Fill-10" fill="#FFFFFF" mask="url(#mask-2)"></path>
                    <path d="M19.3958802,6.23 C15.0323207,6.23 11.9473692,9.52825581 11.9473692,13.4654651 L11.9473692,13.5061628 C11.9473692,17.4439535 14.9921797,20.7015116 19.3551489,20.7015116 C23.7187084,20.7015116 26.8030696,17.4032558 26.8030696,13.4654651 L26.8030696,13.4259302 C26.8030696,9.48755814 23.7594396,6.23 19.3958802,6.23 L19.3958802,6.23 Z M24.185052,13.5061628 C24.185052,16.224186 22.2163736,18.4427907 19.3958802,18.4427907 C16.5742062,18.4427907 14.5653868,16.1840698 14.5653868,13.4654651 L14.5653868,13.4259302 C14.5653868,10.7067442 16.5340652,8.48813953 19.3551489,8.48813953 C22.1762326,8.48813953 24.185052,10.7474419 24.185052,13.4654651 L24.185052,13.5061628 Z" id="Fill-11" fill="#FFFFFF" mask="url(#mask-2)"></path>
                    <path d="M0.000177092511,20.4617442 L10.2691815,20.4617442 L10.2691815,18.3030233 L3.51133128,18.3030233 L6.43394802,15.9047674 C8.9504326,13.8855814 10.1275075,12.6861628 10.1275075,10.4873256 L10.1275075,10.4477907 C10.1275075,7.94895349 8.21963084,6.26988372 5.43927841,6.26988372 C2.90213304,6.26988372 1.56272335,7.32918605 0.203243172,9.20825581 L1.96885551,10.5675581 C3.06446784,9.16813953 3.95760441,8.46930233 5.25687313,8.46930233 C6.55555154,8.46930233 7.54963084,9.26813953 7.54963084,10.6477907 C7.54963084,11.9065116 6.83948987,12.8065116 4.89147225,14.4251163 L0.000177092511,18.5227907 L0.000177092511,20.4617442 Z" id="Fill-12" fill="#FFFFFF" mask="url(#mask-2)"></path>
                </g>
            </g>
        </g>
    </g>
</svg>