<?xml version="1.0" encoding="UTF-8" standalone="no"?>
<svg width="22px" height="27px" viewBox="0 0 22 27" version="1.1" xmlns="http://www.w3.org/2000/svg" xmlns:xlink="http://www.w3.org/1999/xlink">
    <!-- Generator: Sketch 46.2 (44496) - http://www.bohemiancoding.com/sketch -->
    <title>Page 1</title>
    <desc>Created with Sketch.</desc>
    <defs>
        <polygon id="path-1" points="21.525 0.6504 21.525 27 0 27 0 0.6504"></polygon>
    </defs>
    <g id="Page-1" stroke="none" stroke-width="1" fill="none" fill-rule="evenodd">
        <g id="Mobile-Events" transform="translate(-17.000000, -518.000000)">
            <g id="Page-1" transform="translate(17.000000, 517.000000)">
                <g id="Group-3" transform="translate(0.000000, 0.349600)">
                    <mask id="mask-2" fill="white">
                        <use xlink:href="#path-1"></use>
                    </mask>
                    <g id="Clip-2"></g>
                    <path d="M10.7627,2.6504 C5.9307,2.6504 1.9997,6.5814 1.9997,11.4134 C1.9997,15.1614 7.8067,21.4674 10.7627,24.2844 C13.7177,21.4664 19.5257,15.1584 19.5257,11.4134 C19.5257,6.5814 15.5947,2.6504 10.7627,2.6504 L10.7627,2.6504 Z M10.7627,27.0004 L10.0907,26.3914 C9.6797,26.0184 -0.0003,17.1814 -0.0003,11.4134 C-0.0003,5.4784 4.8277,0.6504 10.7627,0.6504 C16.6977,0.6504 21.5257,5.4784 21.5257,11.4134 C21.5257,17.1814 11.8457,26.0184 11.4347,26.3914 L10.7627,27.0004 Z" id="Fill-1" fill="#141B4D" mask="url(#mask-2)"></path>
                </g>
                <path d="M12.7626,10.8661 C12.7626,11.9711 11.8676,12.8661 10.7626,12.8661 C9.6576,12.8661 8.7626,11.9711 8.7626,10.8661 C8.7626,9.7611 9.6576,8.8661 10.7626,8.8661 C11.8676,8.8661 12.7626,9.7611 12.7626,10.8661" id="Fill-4" fill="#141B4D"></path>
            </g>
        </g>
    </g>
</svg>