<?xml version="1.0" encoding="UTF-8" standalone="no"?>
<svg width="26px" height="28px" viewBox="0 0 26 28" version="1.1" xmlns="http://www.w3.org/2000/svg" xmlns:xlink="http://www.w3.org/1999/xlink">
    <!-- Generator: Sketch 46.2 (44496) - http://www.bohemiancoding.com/sketch -->
    <title>Page 1</title>
    <desc>Created with Sketch.</desc>
    <defs>
        <polygon id="path-1" points="12.66355 0.0001 25.327 0.0001 25.327 27.8281 12.66355 27.8281 0.0001 27.8281 0.0001 0.0001"></polygon>
    </defs>
    <g id="Page-1" stroke="none" stroke-width="1" fill="none" fill-rule="evenodd">
        <g id="Mobile-Events" transform="translate(-45.000000, -667.000000)">
            <g id="Group-2" transform="translate(17.000000, 657.000000)">
                <g id="Page-1" transform="translate(28.000000, 10.000000)">
                    <mask id="mask-2" fill="white">
                        <use xlink:href="#path-1"></use>
                    </mask>
                    <g id="Clip-2"></g>
                    <path d="M20.4141,25.8281 C18.8081,25.8281 17.5001,24.5201 17.5001,22.9141 C17.5001,21.3071 18.8081,20.0001 20.4141,20.0001 C22.0201,20.0001 23.3271,21.3071 23.3271,22.9141 C23.3271,24.5201 22.0201,25.8281 20.4141,25.8281 M4.9131,16.7431 C3.3071,16.7431 2.0001,15.4351 2.0001,13.8291 C2.0001,12.2231 3.3071,10.9161 4.9131,10.9161 C6.5191,10.9161 7.8271,12.2231 7.8271,13.8291 C7.8271,15.4351 6.5191,16.7431 4.9131,16.7431 M20.4141,2.0001 C22.0201,2.0001 23.3271,3.3071 23.3271,4.9141 C23.3271,6.5201 22.0201,7.8281 20.4141,7.8281 C18.8081,7.8281 17.5001,6.5201 17.5001,4.9141 C17.5001,3.3071 18.8081,2.0001 20.4141,2.0001 M20.4141,18.0001 C19.0441,18.0001 17.8071,18.5651 16.9151,19.4721 L9.5011,15.5441 C9.7021,15.0081 9.8271,14.4341 9.8271,13.8291 C9.8271,13.2771 9.7151,12.7551 9.5471,12.2601 L16.9151,8.3561 C17.8071,9.2631 19.0441,9.8281 20.4141,9.8281 C23.1231,9.8281 25.3271,7.6241 25.3271,4.9141 C25.3271,2.2041 23.1231,0.0001 20.4141,0.0001 C17.7041,0.0001 15.5001,2.2041 15.5001,4.9141 C15.5001,5.5321 15.6271,6.1181 15.8361,6.6641 L8.5331,10.5341 C7.6331,9.5471 6.3511,8.9161 4.9131,8.9161 C2.2041,8.9161 0.0001,11.1201 0.0001,13.8291 C0.0001,16.5391 2.2041,18.7431 4.9131,18.7431 C6.2961,18.7431 7.5421,18.1651 8.4361,17.2431 L15.8361,21.1641 C15.6271,21.7101 15.5001,22.2961 15.5001,22.9141 C15.5001,25.6241 17.7041,27.8281 20.4141,27.8281 C23.1231,27.8281 25.3271,25.6241 25.3271,22.9141 C25.3271,20.2041 23.1231,18.0001 20.4141,18.0001" id="Fill-1" fill="#141B4D" mask="url(#mask-2)"></path>
                </g>
            </g>
        </g>
    </g>
</svg>