<?xml version="1.0" encoding="UTF-8" standalone="no"?>
<svg width="20px" height="17px" viewBox="0 0 20 17" version="1.1" xmlns="http://www.w3.org/2000/svg" xmlns:xlink="http://www.w3.org/1999/xlink">
    <!-- Generator: Sketch 46.2 (44496) - http://www.bohemiancoding.com/sketch -->
    <title>Page 1</title>
    <desc>Created with Sketch.</desc>
    <defs>
        <path d="M9.7464,4.36663636 C9.7464,4.67918182 9.784,4.99336364 9.848,5.29445455 C6.4464,5.11854545 3.4136,3.51409091 1.396,1.05627273 C1.0408,1.65845455 0.8376,2.34818182 0.8376,3.10009091 C0.8376,4.50409091 1.5608,5.74609091 2.6648,6.47263636 C1.9928,6.44727273 1.3576,6.25990909 0.8128,5.95881818 L0.8128,6.00872727 C0.8128,7.97645455 2.2208,9.60627273 4.0992,9.98263636 C3.7568,10.0701818 3.3888,10.1200909 3.02,10.1200909 C2.7536,10.1200909 2.5,10.0955455 2.2456,10.0579091 C2.7664,11.6623636 4.2768,12.8290909 6.0784,12.8659091 C4.6704,13.9565455 2.9064,14.5963636 0.9896,14.5963636 C0.6472,14.5963636 0.3304,14.5832727 0,14.5456364 C1.8144,15.6992727 3.972,16.3636364 6.2944,16.3636364 C13.832,16.3636364 17.9568,10.1953636 17.9568,4.84281818 C17.9568,4.66690909 17.9568,4.49181818 17.944,4.31672727 C18.7432,3.73990909 19.4416,3.02481818 20,2.223 C19.264,2.53554545 18.4648,2.76218182 17.6392,2.84972727 C18.4896,2.34818182 19.1368,1.55781818 19.4416,0.618545455 C18.6544,1.08163636 17.7664,1.42036364 16.8408,1.59545455 C16.092,0.805909091 15.0256,0.317454545 13.8456,0.317454545 C11.5736,0.317454545 9.7464,2.13463636 9.7464,4.36663636 Z" id="path-1"></path>
    </defs>
    <g id="Page-1" stroke="none" stroke-width="1" fill="none" fill-rule="evenodd">
        <g id="Desktop-Homepage" transform="translate(-188.000000, -945.000000)">
            <g id="Page-1" transform="translate(188.000000, 945.000000)">
                <g id="Group-5">
                    <mask id="mask-2" fill="white">
                        <use xlink:href="#path-1"></use>
                    </mask>
                    <use id="Clip-4" fill="#FFFFFF" xlink:href="#path-1"></use>
                </g>
            </g>
        </g>
    </g>
</svg>